<?xml version="1.0" encoding="UTF-8" standalone="no"?>
<!-- Created with Inkscape (http://www.inkscape.org/) -->

<svg
   xmlns:dc="http://purl.org/dc/elements/1.1/"
   xmlns:cc="http://creativecommons.org/ns#"
   xmlns:rdf="http://www.w3.org/1999/02/22-rdf-syntax-ns#"
   xmlns:svg="http://www.w3.org/2000/svg"
   xmlns="http://www.w3.org/2000/svg"
   xmlns:xlink="http://www.w3.org/1999/xlink"
   xmlns:sodipodi="http://sodipodi.sourceforge.net/DTD/sodipodi-0.dtd"
   xmlns:inkscape="http://www.inkscape.org/namespaces/inkscape"
   width="48"
   height="48"
   id="svg3197"
   version="1.1"
   inkscape:version="0.91 r"
   sodipodi:docname="thermal-monitor.svg">
  <defs
     id="defs3199">
    <linearGradient
       id="linearGradient4206"
       inkscape:collect="always">
      <stop
         id="stop4216"
         offset="0"
         style="stop-color:#313131;stop-opacity:1" />
      <stop
         id="stop4218"
         offset="1"
         style="stop-color:#5c5c5c;stop-opacity:1" />
    </linearGradient>
    <linearGradient
       inkscape:collect="always"
       xlink:href="#linearGradient4251-0"
       id="linearGradient4607"
       gradientUnits="userSpaceOnUse"
       x1="24"
       y1="44"
       x2="24"
       y2="4"
       gradientTransform="translate(0,1004.3622)" />
    <linearGradient
       id="linearGradient4251-0"
       inkscape:collect="always">
      <stop
         id="stop4253-4"
         offset="0"
         style="stop-color:#63984b;stop-opacity:1" />
      <stop
         id="stop4255-2"
         offset="1"
         style="stop-color:#8fc278;stop-opacity:1" />
    </linearGradient>
    <linearGradient
       inkscape:collect="always"
       xlink:href="#linearGradient7669-8"
       id="linearGradient4595"
       gradientUnits="userSpaceOnUse"
       x1="17"
       y1="11"
       x2="44"
       y2="41"
       gradientTransform="translate(0,1004.3622)" />
    <linearGradient
       id="linearGradient7669-8"
       inkscape:collect="always">
      <stop
         id="stop7671-9"
         offset="0"
         style="stop-color:#000000;stop-opacity:1" />
      <stop
         id="stop7673-2"
         offset="1"
         style="stop-color:#000000;stop-opacity:0;" />
    </linearGradient>
    <linearGradient
       inkscape:collect="always"
       xlink:href="#linearGradient4269-1"
       id="linearGradient4592"
       gradientUnits="userSpaceOnUse"
       gradientTransform="matrix(0.94117647,0,0,0.91176459,1.41176,1006.4357)"
       x1="24"
       y1="40"
       x2="24"
       y2="6" />
    <linearGradient
       inkscape:collect="always"
       id="linearGradient4269-1">
      <stop
         style="stop-color:#b1b1b1;stop-opacity:1"
         offset="0"
         id="stop4271-1" />
      <stop
         style="stop-color:#dddddd;stop-opacity:1"
         offset="1"
         id="stop4273-7" />
    </linearGradient>
    <linearGradient
       inkscape:collect="always"
       id="linearGradient5705-1">
      <stop
         style="stop-color:#000000;stop-opacity:1"
         offset="0"
         id="stop5707-9" />
      <stop
         style="stop-color:#000000;stop-opacity:0;"
         offset="1"
         id="stop5709-6" />
    </linearGradient>
    <linearGradient
       inkscape:collect="always"
       xlink:href="#linearGradient4206"
       id="linearGradient4212"
       x1="23.878048"
       y1="1038.4132"
       x2="24.121952"
       y2="1016.2333"
       gradientUnits="userSpaceOnUse" />
    <linearGradient
       inkscape:collect="always"
       xlink:href="#linearGradient5705-1"
       id="linearGradient4236"
       x1="22.864206"
       y1="1025.8447"
       x2="43.912437"
       y2="1048.3485"
       gradientUnits="userSpaceOnUse" />
    <linearGradient
       inkscape:collect="always"
       id="linearGradient4435">
      <stop
         style="stop-color:#bc2e39;stop-opacity:1"
         offset="0"
         id="stop4437" />
      <stop
         style="stop-color:#e45b6b;stop-opacity:1"
         offset="1"
         id="stop4439" />
    </linearGradient>
    <linearGradient
       inkscape:collect="always"
       xlink:href="#linearGradient4435"
       id="linearGradient4258"
       x1="24.028021"
       y1="32.982487"
       x2="23.884413"
       y2="24.576181"
       gradientUnits="userSpaceOnUse" />
  </defs>
  <sodipodi:namedview
     id="base"
     pagecolor="#ffffff"
     bordercolor="#666666"
     borderopacity="1.0"
     inkscape:pageopacity="0.0"
     inkscape:pageshadow="2"
     inkscape:zoom="1"
     inkscape:cx="28.612869"
     inkscape:cy="20.273802"
     inkscape:document-units="px"
     inkscape:current-layer="layer1"
     showgrid="false"
     inkscape:window-width="1600"
     inkscape:window-height="842"
     inkscape:window-x="-4"
     inkscape:window-y="32"
     inkscape:window-maximized="1">
    <inkscape:grid
       type="xygrid"
       id="grid3257"
       empspacing="5"
       visible="true"
       enabled="true"
       snapvisiblegridlinesonly="true" />
  </sodipodi:namedview>
  <metadata
     id="metadata3202">
    <rdf:RDF>
      <cc:Work
         rdf:about="">
        <dc:format>image/svg+xml</dc:format>
        <dc:type
           rdf:resource="http://purl.org/dc/dcmitype/StillImage" />
        <dc:title></dc:title>
      </cc:Work>
    </rdf:RDF>
  </metadata>
  <g
     inkscape:label="Layer 1"
     inkscape:groupmode="layer"
     id="layer1"
     transform="translate(0,-1004.3622)">
    <path
       style="fill:#dce269;fill-opacity:1;fill-rule:evenodd;stroke:none;display:inline"
       d="m 4,1008.3622 0,9 3,2 -3,2 0,27 40,0 0,-40 -40,0 z"
       id="rect4237"
       inkscape:connector-curvature="0" />
    <path
       style="fill:url(#linearGradient4607);fill-opacity:1;fill-rule:evenodd;stroke:none"
       d="m 4,1008.3622 0,8 3,2 -3,2 0,27 40,0 0,-39 -40,0 z"
       id="rect4229"
       inkscape:connector-curvature="0" />
    <path
       inkscape:connector-curvature="0"
       style="font-size:medium;font-style:normal;font-variant:normal;font-weight:normal;font-stretch:normal;text-indent:0;text-align:start;text-decoration:none;line-height:normal;letter-spacing:normal;word-spacing:normal;text-transform:none;direction:ltr;block-progression:tb;writing-mode:lr-tb;text-anchor:start;baseline-shift:baseline;opacity:0.6;color:#000000;fill:#dee372;fill-opacity:1;stroke:none;stroke-width:1;marker:none;visibility:visible;display:inline;overflow:visible;enable-background:accumulate;font-family:Sans;-inkscape-font-specification:Sans"
       d="m 9,1044.3622 0,1 1,0 0,-1 -1,0 z m 1,1 0,1 1,0 0,-1 -1,0 z m 1,0 1,0 0,-1 -1,0 0,1 z m 1,0 0,1 1,0 0,-1 -1,0 z m 1,0 1,0 0,-1 -1,0 0,1 z m 1,0 0,1 1,0 0,-1 -1,0 z m 1,0 1,0 0,-1 -1,0 0,1 z m 1,0 0,1 1,0 0,-1 -1,0 z m 1,0 1,0 0,-1 -1,0 0,1 z m 1,0 0,1 1,0 0,-1 -1,0 z m 1,0 1,0 0,-1 -1,0 0,1 z m 1,0 0,1 1,0 0,-1 -1,0 z m 1,0 1,0 0,-1 -1,0 0,1 z m 1,0 0,1 1,0 0,-1 -1,0 z m 1,0 1,0 0,-1 -1,0 0,1 z m 1,0 0,1 1,0 0,-1 -1,0 z"
       id="path4303" />
    <path
       inkscape:connector-curvature="0"
       style="font-size:medium;font-style:normal;font-variant:normal;font-weight:normal;font-stretch:normal;text-indent:0;text-align:start;text-decoration:none;line-height:normal;letter-spacing:normal;word-spacing:normal;text-transform:none;direction:ltr;block-progression:tb;writing-mode:lr-tb;text-anchor:start;baseline-shift:baseline;opacity:0.6;color:#000000;fill:#dee372;fill-opacity:1;stroke:none;stroke-width:1;marker:none;visibility:visible;display:inline;overflow:visible;enable-background:accumulate;font-family:Sans;-inkscape-font-specification:Sans"
       d="m 35,1044.3622 0,1 1,0 0,-1 -1,0 z m 1,1 0,1 1,0 0,-1 -1,0 z m 1,0 1,0 0,-1 -1,0 0,1 z m 1,0 0,1 1,0 0,-1 -1,0 z m 1,0 1,0 0,-1 -1,0 0,1 z m -4,0 -1,0 0,1 1,0 0,-1 z"
       id="path4313" />
    <path
       inkscape:connector-curvature="0"
       style="fill:#e6ea97;fill-opacity:1;fill-rule:evenodd;stroke:none"
       d="m 43,1044.3622 -2,2 2,0 0,-2 z"
       id="path4317" />
    <path
       inkscape:connector-curvature="0"
       style="font-size:medium;font-style:normal;font-variant:normal;font-weight:normal;font-stretch:normal;text-indent:0;text-align:start;text-decoration:none;line-height:normal;letter-spacing:normal;word-spacing:normal;text-transform:none;direction:ltr;block-progression:tb;writing-mode:lr-tb;text-anchor:start;baseline-shift:baseline;opacity:0.6;color:#000000;fill:#dee372;fill-opacity:1;stroke:none;stroke-width:1;marker:none;visibility:visible;display:inline;overflow:visible;enable-background:accumulate;font-family:Sans;-inkscape-font-specification:Sans"
       d="m 42,1013.3622 0,1 1,0 0,-1 -1,0 z m 0,1 -1,0 0,1 1,0 0,-1 z m 0,1 0,1 1,0 0,-1 -1,0 z m 0,1 -1,0 0,1 1,0 0,-1 z m 0,1 0,1 1,0 0,-1 -1,0 z m 0,1 -1,0 0,1 1,0 0,-1 z m 0,1 0,1 1,0 0,-1 -1,0 z m 0,1 -1,0 0,1 1,0 0,-1 z m 0,1 0,1 1,0 0,-1 -1,0 z m 0,1 -1,0 0,1 1,0 0,-1 z m 0,1 0,1 1,0 0,-1 -1,0 z m 0,1 -1,0 0,1 1,0 0,-1 z m 0,1 0,1 1,0 0,-1 -1,0 z m 0,1 -1,0 0,1 1,0 0,-1 z m 0,1 0,1 1,0 0,-1 -1,0 z m 0,1 -1,0 0,1 1,0 0,-1 z"
       id="path4319" />
    <path
       style="opacity:0.2;fill:url(#linearGradient4595);fill-opacity:1;fill-rule:evenodd;stroke:none;display:inline"
       d="m 40,1012.3622 0,31 -32,0 4.58398,5 31.41602,0 1e-5,-32 z"
       id="path7657"
       inkscape:connector-curvature="0"
       sodipodi:nodetypes="ccccccc" />
    <rect
       style="fill:url(#linearGradient4592);fill-opacity:1;fill-rule:evenodd;stroke:none"
       id="rect4241"
       width="32"
       height="30.999996"
       x="8.0000114"
       y="1012.3622" />
    <rect
       y="1042.3622"
       x="8.0000114"
       height="1.0000263"
       width="32"
       id="rect4259"
       style="fill:#5c5c5c;fill-opacity:1;fill-rule:evenodd;stroke:none" />
    <path
       style="opacity:0.15;fill:url(#linearGradient4236);fill-opacity:1;stroke:none;stroke-width:2;stroke-linecap:round;stroke-linejoin:round;stroke-miterlimit:4;stroke-dasharray:none;stroke-opacity:1"
       d="m 26,1017.1622 18,18.0108 -3e-6,13.1892 -12.202083,0 L 20.5,1036.9759 l 5.162458,-8.6339 z"
       id="rect4225"
       inkscape:connector-curvature="0"
       sodipodi:nodetypes="ccccccc" />
    <path
       style="opacity:1;fill:url(#linearGradient4258);fill-opacity:1;stroke:none;stroke-width:2;stroke-linecap:round;stroke-linejoin:round;stroke-miterlimit:4;stroke-dasharray:none;stroke-opacity:1"
       d="M 24 13 C 23.25893 13 22.620952 13.404201 22.275391 14 L 25.724609 14 C 25.379048 13.404201 24.74107 13 24 13 z M 22 22 L 22 25.541016 A 4 4 0 0 0 20 29 A 4 4 0 0 0 24 33 A 4 4 0 0 0 28 29 A 4 4 0 0 0 26 25.541016 L 26 22 L 22 22 z "
       transform="translate(0,1004.3622)"
       id="path4197" />
    <path
       style="color:#000000;font-style:normal;font-variant:normal;font-weight:normal;font-stretch:normal;font-size:medium;line-height:normal;font-family:sans-serif;text-indent:0;text-align:start;text-decoration:none;text-decoration-line:none;text-decoration-style:solid;text-decoration-color:#000000;letter-spacing:normal;word-spacing:normal;text-transform:none;direction:ltr;block-progression:tb;writing-mode:lr-tb;baseline-shift:baseline;text-anchor:start;white-space:normal;clip-rule:nonzero;display:inline;overflow:visible;visibility:visible;opacity:1;isolation:auto;mix-blend-mode:normal;color-interpolation:sRGB;color-interpolation-filters:linearRGB;solid-color:#000000;solid-opacity:1;fill:url(#linearGradient4212);fill-opacity:1;fill-rule:nonzero;stroke:none;stroke-width:2;stroke-linecap:round;stroke-linejoin:round;stroke-miterlimit:4;stroke-dasharray:none;stroke-dashoffset:0;stroke-opacity:1;color-rendering:auto;image-rendering:auto;shape-rendering:auto;text-rendering:auto;enable-background:accumulate"
       d="m 24,1016.3613 c -1.644703,0 -3,1.3553 -3,3 l 0,10.1758 c -1.187507,0.9384 -1.998037,2.2855 -2,3.8242 0,2.7496 2.250421,5 5,5 2.749579,0 5,-2.2504 5,-5 -0.002,-1.5387 -0.812493,-2.8858 -2,-3.8242 l 0,-10.1758 c 0,-1.6447 -1.355297,-3 -3,-3 z m 0,2 c 0.571297,0 1,0.4287 1,1 l 0,10.541 a 1.0001,1.0001 0 0 0 0.5,0.8672 c 0.927836,0.5357 1.497942,1.5206 1.5,2.5918 0,1.6687 -1.331301,3 -3,3 -1.668044,0 -2.998955,-1.3302 -3,-2.998 l 0,-0 c 0.0021,-1.0712 0.572164,-2.0561 1.5,-2.5918 a 1.0001,1.0001 0 0 0 0.5,-0.8672 l 0,-10.541 c 0,-0.5713 0.428703,-1 1,-1 z"
       id="path4202"
       inkscape:connector-curvature="0" />
  </g>
</svg>
